<?xml version="1.0" standalone="no"?>
<!DOCTYPE svg PUBLIC "-//W3C//DTD SVG 20010904//EN"
 "http://www.w3.org/TR/2001/REC-SVG-20010904/DTD/svg10.dtd">
<svg version="1.0" xmlns="http://www.w3.org/2000/svg"
 width="288.000000pt" height="371.000000pt" viewBox="0 0 288.000000 371.000000"
 preserveAspectRatio="xMidYMid meet">
<metadata>
Created by potrace 1.14, written by Peter Selinger 2001-2017
</metadata>
<g transform="translate(0.000000,371.000000) scale(0.100000,-0.100000)"
fill="#000000" stroke="none">
<path fill="#ff00ff" d="M1290 3530 c-9 -16 -9 -29 -2 -45 9 -19 21 -24 79 -30 37 -4 86 -13
108 -21 58 -20 92 -18 105 6 6 12 8 29 5 40 -9 28 -107 61 -201 67 -77 5 -83
4 -94 -17z"/>
<path d="M965 3513 c-70 -8 -105 -23 -111 -49 -12 -47 10 -57 108 -49 70 6 99
4 143 -10 30 -10 55 -21 55 -24 0 -3 -37 -14 -82 -25 -120 -27 -310 -91 -416
-141 -109 -52 -205 -115 -307 -202 -60 -51 -75 -69 -75 -91 0 -32 16 -52 42
-52 10 0 54 31 99 69 146 127 269 194 481 265 192 64 310 86 465 86 240 0 459
-56 595 -151 32 -23 52 -24 72 -3 41 40 10 77 -119 139 -115 56 -250 91 -425
109 -132 14 -144 17 -249 66 -93 43 -199 74 -236 68 -5 0 -23 -3 -40 -5z"/>
<path d="M664 3389 c-70 -45 -142 -107 -149 -129 -18 -56 52 -81 96 -34 13 14
54 46 90 70 75 50 86 67 64 100 -21 32 -41 30 -101 -7z"/>
<path d="M1217 3210 c-343 -43 -599 -160 -808 -369 -138 -138 -246 -312 -309
-500 -19 -58 -20 -65 -5 -87 15 -24 40 -30 61 -16 7 4 28 48 47 97 73 191 138
295 265 427 223 232 502 343 892 355 198 6 256 -2 350 -48 52 -27 150 -118
150 -141 0 -11 -99 21 -161 52 -92 47 -162 61 -324 67 -126 4 -166 2 -248 -15
-54 -12 -105 -26 -113 -33 -8 -6 -14 -24 -14 -40 0 -47 26 -52 127 -28 66 17
119 22 213 22 146 0 230 -17 336 -68 61 -29 142 -53 240 -71 12 -2 44 -34 73
-73 28 -39 99 -114 157 -168 58 -54 135 -136 170 -183 121 -160 247 -456 306
-719 18 -83 27 -105 44 -113 32 -15 64 6 64 42 0 71 -59 293 -120 448 -98 253
-192 395 -391 592 -120 119 -163 170 -238 281 -50 75 -109 153 -131 172 -46
42 -125 84 -195 104 -60 18 -338 26 -438 13z"/>
<path fill="#ff00ff" d="M2026 3034 c-30 -29 -18 -51 57 -107 132 -98 227 -214 337 -412 58
-103 82 -123 116 -95 22 19 17 44 -25 128 -93 184 -237 364 -365 453 -74 52
-95 58 -120 33z"/>
<path fill="#ff00ff" d="M778 2902 c-332 -203 -541 -503 -653 -935 -19 -72 -35 -140 -35 -149
0 -35 46 -59 78 -40 7 5 27 69 46 143 102 402 285 681 571 867 61 39 116 76
123 82 15 14 16 52 0 68 -21 21 -51 13 -130 -36z"/>
<path fill="#ff00ff" d="M1200 2883 c-202 -35 -394 -129 -534 -262 -263 -250 -437 -693 -453
-1156 -5 -143 -4 -163 11 -178 10 -9 26 -17 35 -17 33 0 46 28 43 94 -4 87 14
259 43 402 129 642 500 1024 995 1027 168 1 308 -48 435 -150 137 -111 258
-309 309 -506 43 -166 46 -488 6 -642 -19 -74 -121 -305 -135 -305 -9 0 3 57
46 225 72 281 74 465 5 465 -36 0 -44 -24 -49 -145 -4 -99 -13 -151 -51 -299
-57 -220 -60 -296 -20 -387 l27 -59 -18 -67 c-34 -124 -150 -343 -318 -601
-80 -122 -98 -157 -93 -177 8 -30 49 -44 72 -24 9 7 48 63 88 123 234 357 348
594 359 750 5 59 16 89 81 225 90 186 112 262 127 434 14 153 0 380 -31 503
-50 195 -148 371 -280 503 -119 120 -235 184 -388 216 -62 14 -253 18 -312 8z"/>
<path d="M1206 2714 c-9 -8 -16 -26 -16 -38 0 -38 23 -49 88 -41 126 14 292
-27 403 -101 66 -44 91 -70 109 -120 9 -23 4 -21 -54 21 -133 95 -260 135
-430 135 -93 0 -103 2 -140 28 -35 24 -48 27 -115 27 -68 -1 -84 -5 -149 -38
-86 -45 -173 -128 -249 -238 -64 -93 -163 -279 -163 -305 0 -28 19 -44 52 -44
25 0 32 9 74 93 136 271 299 437 431 437 l38 0 -64 -37 c-35 -21 -93 -67 -130
-103 -160 -156 -256 -372 -282 -630 -6 -58 -18 -125 -27 -149 l-15 -44 -18 22
c-32 39 -44 120 -29 207 12 75 11 79 -9 96 -30 24 -63 10 -78 -33 -15 -42 -16
-201 -3 -250 6 -20 21 -53 34 -72 l25 -36 -36 -83 c-54 -128 -85 -257 -86
-369 -2 -107 7 -129 54 -129 38 0 44 13 40 91 -3 84 12 166 51 283 41 122 64
165 109 204 48 41 66 91 79 222 35 338 188 601 415 712 81 40 138 52 221 45
105 -9 157 -23 254 -70 72 -34 100 -55 186 -141 114 -114 133 -145 141 -225 6
-64 16 -81 47 -81 36 0 46 20 46 87 0 69 -16 118 -56 170 -16 21 -32 65 -45
125 -27 123 -48 168 -106 223 -61 59 -204 130 -301 150 -101 21 -275 20 -296
-1z"/>
<path fill="#ff00ff" d="M2142 2458 c-18 -18 -15 -44 14 -101 79 -155 114 -323 114 -550 0
-447 -158 -955 -465 -1496 -67 -117 -75 -137 -66 -158 8 -16 19 -23 40 -23 34
0 42 10 121 149 102 181 276 388 419 500 101 79 141 189 148 408 5 131 3 156
-11 178 -19 28 -47 32 -70 9 -13 -12 -16 -40 -16 -143 0 -228 -30 -307 -152
-408 -43 -35 -78 -62 -78 -59 0 2 15 44 34 93 121 318 183 604 193 898 4 131
2 196 -11 283 -22 148 -95 359 -144 415 -17 20 -53 22 -70 5z"/>
<path fill="#ff00ff" d="M1227 2380 c-111 -20 -221 -107 -290 -230 -52 -94 -104 -260 -128
-407 -31 -198 -29 -194 -133 -303 -103 -107 -144 -179 -153 -265 -5 -47 -3
-54 16 -65 32 -17 67 9 76 56 12 69 101 211 120 192 11 -11 -92 -257 -141
-334 -24 -40 -64 -95 -89 -122 -51 -57 -59 -97 -22 -111 34 -13 68 10 130 91
141 185 250 479 277 743 23 235 101 462 191 560 67 72 118 98 208 103 271 16
454 -172 486 -498 13 -131 -27 -341 -96 -503 -48 -113 -116 -224 -299 -492
-155 -225 -270 -426 -294 -511 -10 -32 24 -69 55 -61 20 5 32 23 57 84 17 43
55 117 84 165 69 115 340 508 350 508 17 0 8 -141 -13 -202 -43 -130 -152
-313 -283 -476 -67 -84 -80 -118 -51 -142 28 -23 61 -2 129 86 198 253 312
479 323 645 5 67 3 82 -21 135 l-27 60 50 104 c92 194 131 353 131 534 -1 329
-151 569 -400 640 -70 19 -182 27 -243 16z"/>
<path fill="#ff00ff" d="M1216 2165 c-154 -59 -222 -227 -241 -605 -4 -69 -14 -154 -22 -190
-36 -150 -136 -334 -290 -538 -52 -69 -97 -131 -100 -139 -8 -19 26 -53 53
-53 40 0 243 276 339 461 73 141 105 251 116 397 24 335 41 427 94 504 56 82
180 104 267 49 61 -39 77 -65 90 -147 13 -84 -2 -184 -38 -264 -43 -94 -90
-130 -171 -130 -101 -1 -161 -28 -197 -89 -22 -38 -11 -75 25 -84 17 -5 30 2
54 29 30 33 37 35 105 40 126 8 212 64 270 177 l21 42 -6 -45 c-12 -73 -42
-162 -73 -210 -39 -63 -43 -75 -26 -99 49 -69 134 40 184 234 66 256 -36 563
-215 650 -52 25 -184 31 -239 10z"/>
<path d="M1294 2000 c-25 -10 -78 -69 -100 -111 -8 -17 -22 -61 -29 -97 -22
-106 4 -180 72 -209 49 -20 92 -10 131 30 37 39 49 67 63 157 25 161 -40 270
-137 230z"/>
<path d="M2419 1959 c-19 -19 -20 -28 -14 -132 11 -180 28 -255 83 -374 79
-172 99 -294 70 -434 -13 -65 -3 -89 37 -89 31 0 42 16 60 85 35 137 5 315
-86 496 -45 90 -58 153 -66 317 -5 109 -8 125 -27 138 -27 18 -32 18 -57 -7z"/>
<path d="M1305 1333 c-134 -31 -152 -50 -270 -282 -113 -223 -193 -348 -274
-433 -65 -67 -72 -85 -43 -111 31 -28 51 -20 116 46 87 87 167 211 284 443
109 215 118 226 202 239 58 9 90 30 90 58 0 42 -36 56 -105 40z"/>
<path d="M1407 1168 c-123 -133 -338 -452 -434 -646 -58 -115 -65 -135 -55
-156 13 -30 48 -42 68 -25 9 7 35 54 58 103 81 173 224 394 388 597 43 54 78
106 78 118 0 19 -34 51 -54 51 -5 0 -27 -19 -49 -42z"/>
<path d="M2488 818 c-8 -7 -30 -35 -48 -63 -95 -143 -233 -285 -371 -381 -44
-31 -83 -63 -86 -70 -7 -19 14 -52 38 -59 16 -5 42 7 104 50 150 103 295 252
397 409 42 65 46 86 22 110 -19 19 -35 20 -56 4z"/>
</g>
</svg>
